<?xml version="1.0" encoding="UTF-8"?>
<svg id="_レイヤー_2" data-name="レイヤー 2" xmlns="http://www.w3.org/2000/svg" viewBox="0 0 1148.71 1300">
  <defs>
    <style>
      .cls-1 {
        fill: #fe2c55;
      }

      .cls-2 {
        fill: #25f4ee;
      }
    </style>
  </defs>
  <g id="LOGOS">
    <g>
      <path class="cls-2" d="M447.29,513.14v-51.98c-17.4-2.37-35.08-3.85-53.12-3.85C176.82,457.31,0,634.14,0,851.49c0,133.36,66.63,251.37,168.28,322.73-65.61-70.43-104.56-164.78-104.56-268.39,0-214.23,170.52-387.71,383.58-392.69Z"/>
      <path class="cls-2" d="M456.59,1087.15c96.97,0,177.44-78.44,181.04-174.55l.29-856.94,155.47-1.32c-3.27-17.63-5.06-35.78-5.06-54.34h-214.15l-.34,858.26c-3.6,96.11-82.7,173.25-179.67,173.25-30.14,0-58.52-7.54-83.5-20.68,32.72,45.34,85.87,76.33,145.93,76.33Z"/>
      <path class="cls-2" d="M1086.29,347.08v-49.14c-59.82,0-115.53-17.78-162.25-48.25,41.6,47.78,98.11,83.66,162.25,97.39Z"/>
      <path class="cls-1" d="M924.04,249.69c-45.58-52.35-73.27-120.65-73.27-195.35h-57.37c15.11,81.6,63.54,151.6,130.64,195.35Z"/>
      <path class="cls-1" d="M394.17,671.46c-99.26,0-180.02,80.76-180.02,180.02,0,69.12,39.21,129.18,96.51,159.33-21.35-29.59-34.09-65.79-34.09-104.99,0-99.26,80.76-180.02,180.02-180.02,18.53,0,36.31,3.06,53.12,8.32v-218.63c-17.4-2.37-35.08-3.85-53.12-3.85-3.12,0-6.2.16-9.31.24v167.9c-16.81-5.27-34.59-8.32-53.12-8.32Z"/>
      <path class="cls-1" d="M1086.29,345.65v166.44c-111.04,0-213.95-35.53-297.94-95.81v435.21c0,217.35-176.82,394.17-394.17,394.17-83.99,0-161.87-26.49-225.9-71.44,72.01,77.3,174.59,125.78,288.32,125.78,217.35,0,394.17-176.82,394.17-394.17v-435.21c83.99,60.29,186.9,95.81,297.94,95.81v-214.15c-21.41,0-42.28-2.32-62.42-6.63Z"/>
      <path d="M788.34,851.49v-435.21c83.99,60.29,186.9,95.81,297.94,95.81v-166.44c-64.14-13.73-120.65-48.18-162.25-95.96-67.1-43.75-115.53-113.75-130.64-195.35h-156.79l-.34,858.26c-3.6,96.11-82.7,173.25-179.67,173.25-60.06,0-113.21-29.68-145.93-75.03-57.3-30.15-96.51-90.21-96.51-159.33,0-99.26,80.76-180.02,180.02-180.02,18.53,0,36.3,3.06,53.12,8.32v-167.9c-213.05,4.98-384.87,179.71-384.87,393.94,0,103.62,40.25,197.96,105.85,268.39,64.02,44.95,141.9,71.44,225.9,71.44,217.35,0,394.17-176.82,394.17-394.17Z"/>
    </g>
  </g>
</svg>